<svg width="48" height="48" viewBox="0 0 48 48" fill="none" xmlns="http://www.w3.org/2000/svg">
<path d="M22.713 2.0344C20.7226 2.19494 18.4347 2.65364 17.0392 3.11233C9.58081 5.681 4.22728 11.644 2.44277 19.4188C1.80218 22.1251 1.87081 26.5744 2.55716 29.2807C4.2044 35.7712 8.39114 40.9544 14.3395 43.8441C17.6797 45.4954 20.0133 46 23.9713 46C27.9292 46 30.2628 45.4954 33.6031 43.8441C45.5227 38.0188 49.6637 23.0654 42.4112 12.0568C38.4304 6.00209 32.2075 2.44723 25.0008 2.0344C24.1772 1.98853 23.1477 1.98853 22.713 2.0344ZM21.1115 6.52958C21.1115 6.57545 20.448 7.14881 19.6244 7.83685C13.5388 12.8825 8.84871 22.7214 8.68856 30.7944C8.66568 32.0558 8.61992 33.0649 8.57417 33.0649C8.52841 33.0649 8.20811 32.4227 7.84206 31.62C5.16529 25.9093 5.87452 18.6161 9.55794 13.5476C11.0679 11.5064 13.6074 9.35053 15.8952 8.20381C18.0687 7.12588 21.1115 6.13969 21.1115 6.52958ZM31.5669 8.31848C32.6879 8.86891 33.7175 10.1532 34.4267 11.9651C35.1588 13.7998 35.1588 18.9831 34.4267 21.8958C33.8547 24.2121 32.3448 28.1798 31.544 29.4642L31.0178 30.3357L31.1322 26.4827C31.2008 24.1663 31.1322 21.6664 30.9721 20.2215C30.423 15.5887 28.9816 11.3 27.3115 9.3964C26.9226 8.93771 26.6023 8.52489 26.6023 8.43315C26.6023 8.20381 28.0665 7.88272 29.3248 7.85979C30.1484 7.83685 30.9034 7.99739 31.5669 8.31848ZM24.1543 12.1486C25.344 13.4558 26.4879 17.607 26.8768 21.9875C27.1743 25.3818 26.8997 29.7623 26.2591 32.2622C25.8473 33.8676 24.6576 36.5051 24.3602 36.5051C23.9942 36.5051 23.0104 34.8309 22.4384 33.1796C21.4089 30.3357 21.02 27.6065 21.02 23.203C21.02 18.0657 21.7063 14.3503 23.0562 12.2862C23.4908 11.6211 23.6739 11.5981 24.1543 12.1486ZM40.2149 16.8272C41.3817 19.4188 41.7706 21.6205 41.6563 24.9002C41.5647 27.1019 41.4046 28.0652 40.9241 29.51C39.0024 35.1749 34.7699 39.3719 29.2562 41.0691C26.8311 41.8259 26.5794 41.7112 28.0436 40.5186C30.7662 38.294 33.9005 34.2575 35.7536 30.5421C37.7441 26.5744 39.1396 21.2995 39.254 17.3776C39.2769 16.1621 39.3227 15.1759 39.3684 15.1759C39.4142 15.1759 39.7802 15.9328 40.2149 16.8272ZM16.8104 22.0104C16.6502 29.4183 17.9543 35.3125 20.5167 38.638C21.3403 39.7159 21.3403 39.7159 20.837 39.9223C18.8923 40.6562 16.8561 40.3352 15.4148 39.1196C12.5321 36.6427 12.0517 30.3815 14.2251 23.7305C14.7971 22.0104 16.6273 17.9281 16.8332 17.9281C16.8561 17.9281 16.8561 19.7628 16.8104 22.0104Z" fill="#AB2225"/>
</svg>
