<svg width="253" height="48" viewBox="0 0 253 48" fill="none" xmlns="http://www.w3.org/2000/svg">
<path d="M22.6511 0.037529C20.4745 0.212666 17.9725 0.713055 16.4464 1.21345C8.29016 4.01564 2.43569 10.5207 0.484202 19.0023C-0.216333 21.9547 -0.141276 26.8084 0.609297 29.7607C2.41067 36.8413 6.98917 42.4957 13.4941 45.6482C17.1469 47.4496 19.6989 48 24.0272 48C28.3555 48 30.9074 47.4496 34.5602 45.6482C47.5952 39.2932 52.1236 22.9805 44.1926 10.9711C39.8392 4.36591 33.034 0.487881 25.153 0.037529C24.2523 -0.0125122 23.1265 -0.0125122 22.6511 0.037529ZM20.8998 4.94136C20.8998 4.9914 20.1742 5.61689 19.2735 6.36747C12.6185 11.8718 7.48955 22.6052 7.31441 31.412C7.28939 32.7881 7.23936 33.889 7.18932 33.889C7.13928 33.889 6.78901 33.1884 6.38871 32.3127C3.46147 26.0829 4.23707 18.1267 8.26514 12.5973C9.9164 10.3706 12.6935 8.01876 15.1954 6.76779C17.5722 5.59187 20.8998 4.51603 20.8998 4.94136ZM32.3335 6.89288C33.5594 7.49335 34.6853 8.89445 35.4609 10.871C36.2615 12.8726 36.2615 18.527 35.4609 21.7045C34.8354 24.2314 33.1842 28.5598 32.3085 29.9609L31.733 30.9116L31.8581 26.7084C31.9332 24.1814 31.8581 21.4543 31.683 19.878C31.0826 14.8241 29.5064 10.1454 27.68 8.0688C27.2546 7.56841 26.9044 7.11806 26.9044 7.01798C26.9044 6.76779 28.5056 6.41751 29.8816 6.39249C30.7823 6.36747 31.608 6.54261 32.3335 6.89288ZM24.2273 11.0711C25.5283 12.4973 26.7793 17.0258 27.2046 21.8045C27.5298 25.5074 27.2296 30.2862 26.5291 33.0133C26.0787 34.7647 24.7777 37.6419 24.4525 37.6419C24.0522 37.6419 22.9764 35.8155 22.3509 34.0141C21.225 30.9116 20.7997 27.9343 20.7997 23.1306C20.7997 17.5262 21.5503 13.473 23.0264 11.2213C23.5018 10.4957 23.7019 10.4707 24.2273 11.0711ZM41.7907 16.1751C43.0667 19.0023 43.492 21.4042 43.3669 24.982C43.2669 27.3839 43.0917 28.4347 42.5663 30.0109C40.4647 36.1908 35.8362 40.7694 29.8066 42.6208C27.1546 43.4464 26.8793 43.3213 28.4806 42.0203C31.4578 39.5934 34.8855 35.19 36.912 31.1368C39.0887 26.8084 40.6148 21.0539 40.7399 16.7756C40.7649 15.4496 40.815 14.3737 40.865 14.3737C40.9151 14.3737 41.3154 15.1994 41.7907 16.1751ZM16.1962 21.8296C16.0211 29.9109 17.4471 36.3409 20.2493 39.9687C21.15 41.1446 21.15 41.1446 20.5996 41.3698C18.4729 42.1704 16.2462 41.8202 14.67 40.4941C11.5176 37.792 10.9922 30.9617 13.369 23.706C13.9945 21.8296 15.996 17.3761 16.2212 17.3761C16.2462 17.3761 16.2462 19.3776 16.1962 21.8296Z" fill="#AB2225"/>
<path d="M247.072 1.0382C246.497 1.23835 245.321 2.41427 244.921 3.16486C244.72 3.54015 244.57 4.39081 244.57 5.06634C244.57 8.06869 247.723 10.0202 250.5 8.69418C253.277 7.39316 253.402 3.03976 250.725 1.38847C249.924 0.888079 247.998 0.712941 247.072 1.0382ZM250.55 1.83882C251.726 2.66447 252.176 3.54015 252.176 4.94125C252.176 8.61912 247.448 10.1203 245.571 7.04289C244.695 5.61677 245.021 3.0898 246.172 2.13906C247.397 1.11325 249.374 0.988156 250.55 1.83882Z" fill="black"/>
<path d="M246.322 4.99136V7.61841H247.073C247.773 7.61841 247.823 7.54335 247.823 6.74272C247.823 6.19229 247.949 5.86704 248.149 5.86704C248.324 5.86704 248.674 6.26735 248.899 6.74272C249.224 7.44327 249.45 7.61841 250.05 7.61841H250.801L250.175 6.54257C249.575 5.44171 249.575 5.44171 250.075 4.99136C250.701 4.41591 250.726 3.31505 250.125 2.78964C249.8 2.4894 249.199 2.3643 247.999 2.3643H246.322V4.99136ZM249.249 3.7654C249.375 4.14069 248.649 4.86626 248.174 4.86626C247.949 4.86626 247.823 4.59104 247.823 4.09065C247.823 3.41512 247.898 3.34007 248.499 3.41512C248.849 3.46516 249.199 3.61528 249.249 3.7654Z" fill="black"/>
<path d="M171.515 9.99521V12.3721H173.891H176.268V9.99521V7.61836H173.891H171.515V9.99521Z" fill="black"/>
<path d="M127.23 23.1307V38.3926H129.607H131.984V23.1307V7.86873H129.607H127.23V23.1307Z" fill="black"/>
<path d="M239.567 12.7474C239.567 15.4245 239.517 17.6262 239.417 17.6262C239.341 17.6262 238.866 17.351 238.366 17.0007C235.238 14.849 229.609 14.824 225.981 16.9507C224.58 17.7763 222.529 20.0281 221.803 21.5042C220.127 24.9569 220.127 29.3103 221.803 32.763C222.554 34.3142 224.48 36.3408 226.081 37.3166C229.859 39.5683 235.313 39.4182 238.866 36.9163L240.267 35.9405L240.417 36.7912C240.642 37.917 241.393 38.3924 242.994 38.3924H244.32V23.1305V7.86857H241.943H239.567V12.7474ZM235.989 20.5285C238.516 21.7544 239.917 24.0812 239.917 27.1586C239.942 28.7849 239.817 29.2603 239.191 30.5363C238.341 32.1625 236.664 33.6387 235.063 34.1141C233.537 34.5644 230.835 34.4393 229.559 33.8639C226.031 32.2876 224.405 28.0844 225.806 24.3064C227.282 20.3783 231.986 18.627 235.989 20.5285Z" fill="black"/>
<path d="M68.9117 15.6246C67.5857 15.8498 65.5091 16.8506 64.8336 17.6011C64.1831 18.3017 64.033 18.2767 63.8329 17.3259C63.5576 15.9749 63.0573 15.6246 61.2559 15.6246H59.6797V27.1336V38.6426H62.2817H64.9087L64.9837 31.3119C65.0588 24.4065 65.0838 23.9561 65.5842 23.0054C66.66 21.0288 67.961 20.4033 71.1384 20.3783H73.19V17.8764V15.3744L71.6388 15.3994C70.7631 15.4244 69.5372 15.5245 68.9117 15.6246Z" fill="black"/>
<path d="M81.3959 15.8499C79.3944 16.5004 77.9933 17.3761 76.6423 18.8272C71.4383 24.3816 72.7143 33.6638 79.1942 37.4668C81.496 38.8179 85.3489 39.2682 88.101 38.5426C91.0533 37.767 93.7303 35.6154 95.1814 32.8882L95.9821 31.3871H93.5302H91.0783L90.4028 32.2377C90.0275 32.7131 89.0768 33.4136 88.2762 33.8139C87.1003 34.3894 86.4998 34.5145 85.0737 34.5145C84.123 34.5145 82.8971 34.3394 82.3467 34.1642C80.9956 33.6888 79.4695 32.2377 78.7939 30.7616C77.6931 28.4598 76.9675 28.6349 87.3254 28.6349H96.4574V26.9336C96.4574 22.2549 94.0306 18.3519 89.9775 16.4003C88.2261 15.5747 87.8759 15.4996 85.449 15.4496C83.4225 15.3996 82.4968 15.4746 81.3959 15.8499ZM87.5256 19.9531C88.7766 20.3034 90.5279 21.8546 91.1784 23.2057C91.4786 23.8061 91.7038 24.4316 91.7038 24.5817C91.7038 24.8069 89.9775 24.882 84.9486 24.882H78.2185L78.5938 23.8311C79.8197 20.3034 83.3975 18.7522 87.5256 19.9531Z" fill="black"/>
<path d="M106.69 15.9749C103.813 16.9757 101.611 18.8521 100.335 21.3541C96.7322 28.5097 100.485 36.9663 107.991 38.6426C111.193 39.3431 115.246 38.5425 117.598 36.7411C118.224 36.2657 118.774 35.8904 118.824 35.8904C118.874 35.8904 118.999 36.2907 119.074 36.7661C119.299 37.917 120.05 38.3924 121.651 38.3924H122.977V27.1336V15.8748H121.476C119.825 15.8748 119.45 16.2 119.099 17.8263L118.924 18.652L118.073 17.8764C115.321 15.4745 110.418 14.6488 106.69 15.9749ZM114.196 20.4033C116.823 21.5542 118.299 23.9811 118.324 27.1336C118.349 28.7098 118.224 29.2603 117.648 30.4362C116.272 33.2384 113.895 34.5394 110.468 34.3392C108.191 34.2141 106.79 33.5136 105.364 31.8373C103.012 29.1101 103.212 24.4315 105.764 21.9545C108.141 19.6778 111.243 19.1023 114.196 20.4033Z" fill="black"/>
<path d="M189.779 15.7247C188.378 16.0249 186.377 17.0257 185.776 17.7262C185.301 18.3017 185.101 18.2266 184.925 17.3259C184.65 15.9999 184.125 15.6246 182.474 15.6246H181.022V27.1336V38.6426H183.499H186.001L186.076 31.4369C186.151 24.6817 186.176 24.1813 186.702 23.0804C187.052 22.3048 187.602 21.6793 188.278 21.229C189.229 20.6035 189.629 20.5034 191.806 20.4283L194.283 20.3283V17.8513V15.3744L192.731 15.3994C191.856 15.3994 190.53 15.5495 189.779 15.7247Z" fill="black"/>
<path d="M202.738 15.8498C195.858 18.0515 192.755 26.1579 196.183 32.9382C197.509 35.5652 200.611 37.9421 203.564 38.6176C205.115 38.9929 207.942 38.9428 209.443 38.5425C212.395 37.7669 215.273 35.4901 216.624 32.8631L217.324 31.512L214.897 31.437L212.471 31.3619L211.745 32.2376C211.345 32.713 210.394 33.4135 209.593 33.8138C208.392 34.3893 207.867 34.5144 206.291 34.4894C205.19 34.4894 204.039 34.3142 203.514 34.0891C202.138 33.4886 200.762 32.1375 200.136 30.7615C199.035 28.4597 198.31 28.6348 208.693 28.6348H217.875L217.75 26.308C217.449 21.204 214.697 17.4511 210.094 15.8998C208.092 15.2243 204.79 15.1993 202.738 15.8498ZM208.868 19.953C210.069 20.2783 211.92 21.9045 212.546 23.1555C213.496 24.9819 213.822 24.8819 206.316 24.8819H199.561L199.836 24.0562C201.087 20.3783 204.69 18.7521 208.868 19.953Z" fill="black"/>
<path d="M134.236 16.075C134.236 16.2001 135.913 21.2291 137.964 27.2838L141.692 38.2674H143.618H145.52L148.322 31.5871C149.873 27.9093 151.199 24.8819 151.274 24.8819C151.374 24.8819 151.5 25.0821 151.55 25.3072C151.625 25.5574 152.901 28.6098 154.377 32.0875L157.079 38.4175L158.98 38.3424L160.882 38.2674L164.559 27.3839C166.586 21.4042 168.237 16.3502 168.237 16.1751C168.262 15.9249 167.712 15.8749 165.986 15.9249L163.709 16L161.157 23.4308C159.781 27.509 158.555 30.7865 158.455 30.6864C158.355 30.5864 156.879 27.3088 155.177 23.3807L152.075 16.2502H151.249H150.399L147.221 23.5809C145.495 27.6341 143.994 30.8366 143.944 30.7115C143.869 30.6114 142.718 27.2087 141.392 23.1806L138.94 15.8749H136.588C135.287 15.8749 134.236 15.9749 134.236 16.075Z" fill="black"/>
<path d="M171.515 27.1338V38.3926H173.766H176.018V27.1338V15.875H173.766H171.515V27.1338Z" fill="black"/>
</svg>
