<svg width="77" height="77" viewBox="0 0 77 77" fill="none" xmlns="http://www.w3.org/2000/svg">
<path fill-rule="evenodd" clip-rule="evenodd" d="M16.9922 16.093C19.3652 6.844 27.7652 0 37.7512 0C49.5782 0 59.1802 9.602 59.1802 21.429C59.1802 31.415 52.3352 39.814 43.0862 42.188C43.5242 40.481 43.7572 38.694 43.7572 36.852C43.7572 25.025 34.1552 15.423 22.3282 15.423C20.4862 15.423 18.6992 15.655 16.9922 16.093Z" fill="#2652B1"/>
<path fill-rule="evenodd" clip-rule="evenodd" d="M16.093 59.1799C6.844 56.8069 0 48.4069 0 38.4209C0 26.5939 9.602 16.9919 21.429 16.9919C31.415 16.9919 39.814 23.8369 42.188 33.0859C40.481 32.6479 38.694 32.4149 36.852 32.4149C25.025 32.4149 15.423 42.0169 15.423 53.8439C15.423 55.6859 15.655 57.4729 16.093 59.1799Z" fill="#2652B1"/>
<path fill-rule="evenodd" clip-rule="evenodd" d="M59.1802 60.0789C56.8072 69.3279 48.4072 76.1719 38.4212 76.1719C26.5942 76.1719 16.9922 66.5699 16.9922 54.7429C16.9922 44.7569 23.8372 36.3579 33.0862 33.9839C32.6482 35.6909 32.4152 37.4779 32.4152 39.3199C32.4152 51.1469 42.0172 60.7489 53.8442 60.7489C55.6862 60.7489 57.4732 60.5169 59.1802 60.0789Z" fill="#2652B1"/>
<path fill-rule="evenodd" clip-rule="evenodd" d="M60.0794 16.9919C69.3284 19.3649 76.1724 27.7649 76.1724 37.7509C76.1724 49.5779 66.5704 59.1799 54.7434 59.1799C44.7574 59.1799 36.3584 52.3349 33.9844 43.0859C35.6914 43.5239 37.4784 43.7569 39.3204 43.7569C51.1474 43.7569 60.7494 34.1549 60.7494 22.3279C60.7494 20.4859 60.5174 18.6989 60.0794 16.9919Z" fill="#2652B1"/>
</svg>
