<svg width="419" height="77" viewBox="0 0 419 77" fill="none" xmlns="http://www.w3.org/2000/svg">
<path fill-rule="evenodd" clip-rule="evenodd" d="M16.9922 16.093C19.3652 6.844 27.7652 0 37.7512 0C49.5782 0 59.1802 9.602 59.1802 21.429C59.1802 31.415 52.3352 39.814 43.0862 42.188C43.5242 40.481 43.7572 38.694 43.7572 36.852C43.7572 25.025 34.1552 15.423 22.3282 15.423C20.4862 15.423 18.6992 15.655 16.9922 16.093Z" fill="#2652B1"/>
<path fill-rule="evenodd" clip-rule="evenodd" d="M16.093 59.1799C6.844 56.8069 0 48.4069 0 38.4209C0 26.5939 9.602 16.9919 21.429 16.9919C31.415 16.9919 39.814 23.8369 42.188 33.0859C40.481 32.6479 38.694 32.4149 36.852 32.4149C25.025 32.4149 15.423 42.0169 15.423 53.8439C15.423 55.6859 15.655 57.4729 16.093 59.1799Z" fill="#2652B1"/>
<path fill-rule="evenodd" clip-rule="evenodd" d="M59.1802 60.0789C56.8072 69.3279 48.4072 76.1719 38.4212 76.1719C26.5942 76.1719 16.9922 66.5699 16.9922 54.7429C16.9922 44.7569 23.8372 36.3579 33.0862 33.9839C32.6482 35.6909 32.4152 37.4779 32.4152 39.3199C32.4152 51.1469 42.0172 60.7489 53.8442 60.7489C55.6862 60.7489 57.4732 60.5169 59.1802 60.0789Z" fill="#2652B1"/>
<path fill-rule="evenodd" clip-rule="evenodd" d="M60.0794 16.9919C69.3284 19.3649 76.1724 27.7649 76.1724 37.7509C76.1724 49.5779 66.5704 59.1799 54.7434 59.1799C44.7574 59.1799 36.3584 52.3349 33.9844 43.0859C35.6914 43.5239 37.4784 43.7569 39.3204 43.7569C51.1474 43.7569 60.7494 34.1549 60.7494 22.3279C60.7494 20.4859 60.5174 18.6989 60.0794 16.9919Z" fill="#2652B1"/>
<path d="M94.9707 59L80.8203 16.7246H90.6055L100.273 49.9473H100.449L110.088 16.7246H119.902L105.752 59H94.9707ZM131.301 59.6445C128.098 59.6445 125.344 58.9902 123.039 57.6816C120.735 56.3535 118.957 54.4688 117.707 52.0273C116.477 49.5859 115.862 46.6953 115.862 43.3555V43.3262C115.862 39.9863 116.477 37.0957 117.707 34.6543C118.957 32.1934 120.705 30.2988 122.952 28.9707C125.217 27.623 127.883 26.9492 130.95 26.9492C134.016 26.9492 136.662 27.6035 138.889 28.9121C141.135 30.2012 142.864 32.0273 144.075 34.3906C145.305 36.7539 145.92 39.5176 145.92 42.6816V45.3184H120.051V39.9277H141.877L137.805 44.9668V41.6855C137.805 39.8496 137.522 38.3164 136.955 37.0859C136.389 35.8359 135.598 34.8984 134.582 34.2734C133.586 33.6484 132.424 33.3359 131.096 33.3359C129.768 33.3359 128.586 33.6582 127.551 34.3027C126.536 34.9473 125.735 35.8945 125.149 37.1445C124.582 38.375 124.299 39.8887 124.299 41.6855V44.9961C124.299 46.7344 124.582 48.2188 125.149 49.4492C125.735 50.6797 126.565 51.627 127.639 52.291C128.713 52.9355 129.993 53.2578 131.477 53.2578C132.649 53.2578 133.664 53.0723 134.524 52.7012C135.383 52.3301 136.086 51.8613 136.633 51.2949C137.18 50.7285 137.551 50.1523 137.746 49.5664L137.805 49.3906H145.657L145.569 49.7129C145.334 50.8652 144.875 52.0273 144.192 53.1992C143.508 54.3711 142.58 55.4453 141.409 56.4219C140.256 57.3984 138.84 58.1797 137.161 58.7656C135.5 59.3516 133.547 59.6445 131.301 59.6445ZM147.944 59V27.5938H156.499V32.75H156.675C157.495 30.9531 158.706 29.5371 160.307 28.502C161.909 27.4668 163.891 26.9492 166.255 26.9492C169.712 26.9492 172.378 27.9941 174.253 30.084C176.147 32.1543 177.095 35.0352 177.095 38.7266V59H168.54V40.4844C168.54 38.4336 168.052 36.8516 167.075 35.7383C166.118 34.6055 164.682 34.0391 162.768 34.0391C161.499 34.0391 160.395 34.332 159.458 34.918C158.52 35.4844 157.788 36.2852 157.261 37.3203C156.753 38.3555 156.499 39.5664 156.499 40.9531V59H147.944ZM191.745 59.6445C189.109 59.6445 186.833 58.9902 184.919 57.6816C183.005 56.373 181.53 54.498 180.495 52.0566C179.48 49.6152 178.972 46.6953 178.972 43.2969V43.2676C178.972 39.8496 179.489 36.9297 180.525 34.5078C181.56 32.0664 183.025 30.2012 184.919 28.9121C186.833 27.6035 189.109 26.9492 191.745 26.9492C193.972 26.9492 195.925 27.4961 197.605 28.5898C199.284 29.6641 200.554 31.1484 201.413 33.043H201.589V16.7246H210.144V59H201.589V53.6387H201.413C200.573 55.5137 199.314 56.9883 197.634 58.0625C195.974 59.1172 194.011 59.6445 191.745 59.6445ZM194.616 52.5547C196.003 52.5547 197.224 52.1836 198.279 51.4414C199.333 50.6797 200.154 49.6055 200.739 48.2188C201.325 46.832 201.618 45.1914 201.618 43.2969V43.2676C201.618 41.373 201.316 39.7422 200.71 38.375C200.124 36.9883 199.304 35.9238 198.249 35.1816C197.214 34.4199 196.003 34.0391 194.616 34.0391C193.191 34.0391 191.96 34.4102 190.925 35.1523C189.89 35.8945 189.089 36.959 188.523 38.3457C187.956 39.7129 187.673 41.3535 187.673 43.2676V43.2969C187.673 45.1914 187.946 46.832 188.493 48.2188C189.06 49.6055 189.861 50.6797 190.896 51.4414C191.95 52.1836 193.191 52.5547 194.616 52.5547ZM227.871 59.6445C224.687 59.6445 221.933 58.9902 219.609 57.6816C217.285 56.373 215.488 54.498 214.218 52.0566C212.949 49.6152 212.314 46.6953 212.314 43.2969V43.2383C212.314 39.8594 212.959 36.959 214.248 34.5371C215.537 32.0957 217.343 30.2207 219.668 28.9121C221.992 27.6035 224.716 26.9492 227.841 26.9492C230.986 26.9492 233.72 27.6035 236.045 28.9121C238.388 30.2012 240.205 32.0664 241.494 34.5078C242.783 36.9297 243.427 39.8398 243.427 43.2383V43.2969C243.427 46.7148 242.783 49.6445 241.494 52.0859C240.224 54.5273 238.427 56.4023 236.103 57.7109C233.779 59 231.035 59.6445 227.871 59.6445ZM227.9 52.9355C229.287 52.9355 230.488 52.5645 231.504 51.8223C232.539 51.0605 233.33 49.9668 233.877 48.541C234.443 47.0957 234.726 45.3477 234.726 43.2969V43.2383C234.726 41.207 234.443 39.4785 233.877 38.0527C233.31 36.627 232.509 35.543 231.474 34.8008C230.439 34.0391 229.228 33.6582 227.841 33.6582C226.474 33.6582 225.273 34.0391 224.238 34.8008C223.222 35.543 222.431 36.627 221.865 38.0527C221.298 39.4785 221.015 41.207 221.015 43.2383V43.2969C221.015 45.3477 221.289 47.0957 221.836 48.541C222.402 49.9668 223.203 51.0605 224.238 51.8223C225.273 52.5645 226.494 52.9355 227.9 52.9355ZM245.451 59V27.5938H254.006V33.0723H254.182C254.65 31.1387 255.5 29.6348 256.73 28.5605C257.961 27.4863 259.494 26.9492 261.33 26.9492C261.799 26.9492 262.248 26.9785 262.678 27.0371C263.107 27.0957 263.479 27.1738 263.791 27.2715V34.8008C263.439 34.6641 262.99 34.5566 262.443 34.4785C261.896 34.3809 261.311 34.332 260.686 34.332C259.279 34.332 258.078 34.6055 257.082 35.1523C256.086 35.6992 255.324 36.5 254.797 37.5547C254.27 38.6094 254.006 39.8984 254.006 41.4219V59H245.451ZM293.942 59.7324C289.821 59.7324 286.247 58.8535 283.22 57.0957C280.212 55.3379 277.887 52.8281 276.247 49.5664C274.626 46.2852 273.815 42.3789 273.815 37.8477V37.8184C273.815 33.2676 274.636 29.3711 276.276 26.1289C277.917 22.8672 280.241 20.3672 283.249 18.6289C286.257 16.8711 289.821 15.9922 293.942 15.9922C297.36 15.9922 300.407 16.6562 303.083 17.9844C305.759 19.3125 307.907 21.1387 309.528 23.4629C311.149 25.7676 312.096 28.4238 312.37 31.4316L312.399 31.6953H303.786L303.669 31.1973C303.337 29.6348 302.741 28.2773 301.882 27.125C301.022 25.9727 299.919 25.084 298.571 24.459C297.243 23.8145 295.7 23.4922 293.942 23.4922C291.677 23.4922 289.714 24.0684 288.054 25.2207C286.393 26.373 285.104 28.0234 284.186 30.1719C283.288 32.3008 282.839 34.8398 282.839 37.7891V37.8184C282.839 40.7871 283.288 43.3555 284.186 45.5234C285.104 47.6719 286.393 49.332 288.054 50.5039C289.733 51.6562 291.696 52.2324 293.942 52.2324C295.641 52.2324 297.155 51.9199 298.483 51.2949C299.831 50.6699 300.954 49.7715 301.852 48.5996C302.751 47.4082 303.386 45.9727 303.757 44.293L303.815 44H312.429L312.399 44.3223C312.126 47.3105 311.169 49.9668 309.528 52.291C307.907 54.6152 305.759 56.4414 303.083 57.7695C300.407 59.0781 297.36 59.7324 293.942 59.7324ZM314.95 59V27.5938H323.505V59H314.95ZM319.228 23.5508C317.939 23.5508 316.855 23.1113 315.976 22.2324C315.097 21.3535 314.657 20.3086 314.657 19.0977C314.657 17.8672 315.097 16.8223 315.976 15.9629C316.855 15.084 317.939 14.6445 319.228 14.6445C320.517 14.6445 321.601 15.084 322.48 15.9629C323.359 16.8223 323.798 17.8672 323.798 19.0977C323.798 20.3086 323.359 21.3535 322.48 22.2324C321.601 23.1113 320.517 23.5508 319.228 23.5508ZM326.847 59V27.5938H335.402V33.0723H335.578C336.046 31.1387 336.896 29.6348 338.127 28.5605C339.357 27.4863 340.89 26.9492 342.726 26.9492C343.195 26.9492 343.644 26.9785 344.074 27.0371C344.504 27.0957 344.875 27.1738 345.187 27.2715V34.8008C344.836 34.6641 344.386 34.5566 343.839 34.4785C343.293 34.3809 342.707 34.332 342.082 34.332C340.675 34.332 339.474 34.6055 338.478 35.1523C337.482 35.6992 336.72 36.5 336.193 37.5547C335.666 38.6094 335.402 39.8984 335.402 41.4219V59H326.847ZM359.662 59.6445C356.479 59.6445 353.725 58.9805 351.4 57.6523C349.076 56.3242 347.289 54.4395 346.039 51.998C344.789 49.5371 344.164 46.627 344.164 43.2676V43.2383C344.164 39.8789 344.789 36.9883 346.039 34.5664C347.309 32.125 349.096 30.25 351.4 28.9414C353.725 27.6133 356.449 26.9492 359.574 26.9492C362.426 26.9492 364.896 27.4863 366.986 28.5605C369.076 29.6152 370.707 31.0508 371.879 32.8672C373.07 34.6836 373.725 36.7246 373.842 38.9902V39.1953H365.902L365.844 38.9316C365.59 37.4277 364.945 36.1777 363.91 35.1816C362.875 34.166 361.469 33.6582 359.691 33.6582C358.305 33.6582 357.094 34.0488 356.059 34.8301C355.043 35.5918 354.252 36.6953 353.686 38.1406C353.139 39.5664 352.865 41.2754 352.865 43.2676V43.2969C352.865 45.3477 353.139 47.0957 353.686 48.541C354.252 49.9668 355.043 51.0605 356.059 51.8223C357.094 52.5645 358.314 52.9355 359.721 52.9355C361.439 52.9355 362.816 52.457 363.852 51.5C364.906 50.5234 365.58 49.2441 365.873 47.6621L365.902 47.3984H373.871V47.5742C373.734 49.8594 373.07 51.9102 371.879 53.7266C370.688 55.543 369.047 56.9883 366.957 58.0625C364.887 59.1172 362.455 59.6445 359.662 59.6445ZM375.807 59V16.7246H384.362V59H375.807ZM402.03 59.6445C398.827 59.6445 396.073 58.9902 393.768 57.6816C391.464 56.3535 389.686 54.4688 388.436 52.0273C387.206 49.5859 386.591 46.6953 386.591 43.3555V43.3262C386.591 39.9863 387.206 37.0957 388.436 34.6543C389.686 32.1934 391.434 30.2988 393.68 28.9707C395.946 27.623 398.612 26.9492 401.679 26.9492C404.745 26.9492 407.391 27.6035 409.618 28.9121C411.864 30.2012 413.593 32.0273 414.804 34.3906C416.034 36.7539 416.649 39.5176 416.649 42.6816V45.3184H390.78V39.9277H412.606L408.534 44.9668V41.6855C408.534 39.8496 408.251 38.3164 407.684 37.0859C407.118 35.8359 406.327 34.8984 405.311 34.2734C404.315 33.6484 403.153 33.3359 401.825 33.3359C400.497 33.3359 399.315 33.6582 398.28 34.3027C397.264 34.9473 396.464 35.8945 395.878 37.1445C395.311 38.375 395.028 39.8887 395.028 41.6855V44.9961C395.028 46.7344 395.311 48.2188 395.878 49.4492C396.464 50.6797 397.294 51.627 398.368 52.291C399.442 52.9355 400.721 53.2578 402.206 53.2578C403.378 53.2578 404.393 53.0723 405.253 52.7012C406.112 52.3301 406.815 51.8613 407.362 51.2949C407.909 50.7285 408.28 50.1523 408.475 49.5664L408.534 49.3906H416.386L416.298 49.7129C416.063 50.8652 415.604 52.0273 414.921 53.1992C414.237 54.3711 413.309 55.4453 412.138 56.4219C410.985 57.3984 409.569 58.1797 407.889 58.7656C406.229 59.3516 404.276 59.6445 402.03 59.6445Z" fill="#2652B1"/>
</svg>
